<?xml version="1.0" encoding="UTF-8" standalone="no"?>
<!DOCTYPE svg PUBLIC "-//W3C//DTD SVG 1.1//EN"
    "http://www.w3.org/Graphics/SVG/1.1/DTD/svg11.dtd">
<!-- Generated by graphviz version 2.38.0 (20140413.2041)
 -->
<!-- Title: G Pages: 1 -->
<svg xmlns:xlink="http://www.w3.org/1999/xlink" width="1209pt"
     height="1417pt" viewBox="0.00 0.00 1209.00 1417.00" xmlns="http://www.w3.org/2000/svg">
    <g id="graph0" class="graph" transform="scale(1 1) rotate(0) translate(36 1381)">
        <title>G</title>
        <polygon fill="#f7f7f7" stroke="none" points="-36,36 -36,-1381 1173,-1381 1173,36 -36,36"/>
        <!-- appcomment -->
        <g id="node1" class="node">
            <title>appcomment</title>
            <polygon fill="none" stroke="black" points="164,-1058.5 0,-1058.5 0,-762.5 164,-762.5 164,-1058.5"/>
            <polygon fill="#d3d3d3" stroke="none" points="0,-1021.5 0,-1058.5 164,-1058.5 164,-1021.5 0,-1021.5"/>
            <polygon fill="none" stroke="black" points="0,-1021.5 0,-1058.5 164,-1058.5 164,-1021.5 0,-1021.5"/>
            <text text-anchor="start" x="51.5" y="-1036.3" font-family="Helvetica Neue" font-size="14.00"
                  fill="#333333">Comment
            </text>
            <polygon fill="#ffffff" stroke="none" points="0,-984.5 0,-1021.5 164,-1021.5 164,-984.5 0,-984.5"/>
            <polygon fill="none" stroke="black" points="0,-984.5 0,-1021.5 164,-1021.5 164,-984.5 0,-984.5"/>
            <text text-anchor="start" x="11" y="-999.3" font-family="Helvetica Neue" font-size="14.00" fill="#333333">id
                (bigint)
            </text>
            <polygon fill="#ffffff" stroke="none" points="0,-947.5 0,-984.5 164,-984.5 164,-947.5 0,-947.5"/>
            <polygon fill="none" stroke="black" points="0,-947.5 0,-984.5 164,-984.5 164,-947.5 0,-947.5"/>
            <text text-anchor="start" x="11" y="-962.3" font-family="Helvetica Neue" font-size="14.00" fill="#333333">
                user_id (bigint)
            </text>
            <polygon fill="#ffffff" stroke="none" points="0,-910.5 0,-947.5 164,-947.5 164,-910.5 0,-910.5"/>
            <polygon fill="none" stroke="black" points="0,-910.5 0,-947.5 164,-947.5 164,-910.5 0,-910.5"/>
            <text text-anchor="start" x="11" y="-925.3" font-family="Helvetica Neue" font-size="14.00" fill="#333333">
                quiz_id (bigint)
            </text>
            <polygon fill="#ffffff" stroke="none" points="0,-873.5 0,-910.5 164,-910.5 164,-873.5 0,-873.5"/>
            <polygon fill="none" stroke="black" points="0,-873.5 0,-910.5 164,-910.5 164,-873.5 0,-873.5"/>
            <text text-anchor="start" x="11" y="-888.3" font-family="Helvetica Neue" font-size="14.00" fill="#333333">
                comment (text)
            </text>
            <polygon fill="#ffffff" stroke="none" points="0,-836.5 0,-873.5 164,-873.5 164,-836.5 0,-836.5"/>
            <polygon fill="none" stroke="black" points="0,-836.5 0,-873.5 164,-873.5 164,-836.5 0,-836.5"/>
            <text text-anchor="start" x="11" y="-851.3" font-family="Helvetica Neue" font-size="14.00" fill="#333333">
                created_at (datetime)
            </text>
            <polygon fill="#ffffff" stroke="none" points="0,-799.5 0,-836.5 164,-836.5 164,-799.5 0,-799.5"/>
            <polygon fill="none" stroke="black" points="0,-799.5 0,-836.5 164,-836.5 164,-799.5 0,-799.5"/>
            <text text-anchor="start" x="11" y="-814.3" font-family="Helvetica Neue" font-size="14.00" fill="#333333">
                updated_at (datetime)
            </text>
            <polygon fill="#ffffff" stroke="none" points="0,-762.5 0,-799.5 164,-799.5 164,-762.5 0,-762.5"/>
            <polygon fill="none" stroke="black" points="0,-762.5 0,-799.5 164,-799.5 164,-762.5 0,-762.5"/>
            <text text-anchor="start" x="11" y="-777.3" font-family="Helvetica Neue" font-size="14.00" fill="#333333">
                deleted_at (datetime)
            </text>
        </g>
        <!-- appquiz -->
        <g id="node2" class="node">
            <title>appquiz</title>
            <polygon fill="none" stroke="black" points="477,-672 313,-672 313,-339 477,-339 477,-672"/>
            <polygon fill="#d3d3d3" stroke="none" points="313,-634.5 313,-671.5 477,-671.5 477,-634.5 313,-634.5"/>
            <polygon fill="none" stroke="black" points="313,-634.5 313,-671.5 477,-671.5 477,-634.5 313,-634.5"/>
            <text text-anchor="start" x="381" y="-649.3" font-family="Helvetica Neue" font-size="14.00" fill="#333333">
                Quiz
            </text>
            <polygon fill="#ffffff" stroke="none" points="313,-597.5 313,-634.5 477,-634.5 477,-597.5 313,-597.5"/>
            <polygon fill="none" stroke="black" points="313,-597.5 313,-634.5 477,-634.5 477,-597.5 313,-597.5"/>
            <text text-anchor="start" x="324" y="-612.3" font-family="Helvetica Neue" font-size="14.00" fill="#333333">
                id (bigint)
            </text>
            <polygon fill="#ffffff" stroke="none" points="313,-560.5 313,-597.5 477,-597.5 477,-560.5 313,-560.5"/>
            <polygon fill="none" stroke="black" points="313,-560.5 313,-597.5 477,-597.5 477,-560.5 313,-560.5"/>
            <text text-anchor="start" x="324" y="-575.3" font-family="Helvetica Neue" font-size="14.00" fill="#333333">
                user_id (bigint)
            </text>
            <polygon fill="#ffffff" stroke="none" points="313,-523.5 313,-560.5 477,-560.5 477,-523.5 313,-523.5"/>
            <polygon fill="none" stroke="black" points="313,-523.5 313,-560.5 477,-560.5 477,-523.5 313,-523.5"/>
            <text text-anchor="start" x="324" y="-538.3" font-family="Helvetica Neue" font-size="14.00" fill="#333333">
                title (string)
            </text>
            <polygon fill="#ffffff" stroke="none" points="313,-486.5 313,-523.5 477,-523.5 477,-486.5 313,-486.5"/>
            <polygon fill="none" stroke="black" points="313,-486.5 313,-523.5 477,-523.5 477,-486.5 313,-486.5"/>
            <text text-anchor="start" x="324" y="-501.3" font-family="Helvetica Neue" font-size="14.00" fill="#333333">
                description (text)
            </text>
            <polygon fill="#ffffff" stroke="none" points="313,-449.5 313,-486.5 477,-486.5 477,-449.5 313,-449.5"/>
            <polygon fill="none" stroke="black" points="313,-449.5 313,-486.5 477,-486.5 477,-449.5 313,-449.5"/>
            <text text-anchor="start" x="324" y="-464.3" font-family="Helvetica Neue" font-size="14.00" fill="#333333">
                play_count (bigint)
            </text>
            <polygon fill="#ffffff" stroke="none" points="313,-412.5 313,-449.5 477,-449.5 477,-412.5 313,-412.5"/>
            <polygon fill="none" stroke="black" points="313,-412.5 313,-449.5 477,-449.5 477,-412.5 313,-412.5"/>
            <text text-anchor="start" x="324" y="-427.3" font-family="Helvetica Neue" font-size="14.00" fill="#333333">
                deleted_at (datetime)
            </text>
            <polygon fill="#ffffff" stroke="none" points="313,-375.5 313,-412.5 477,-412.5 477,-375.5 313,-375.5"/>
            <polygon fill="none" stroke="black" points="313,-375.5 313,-412.5 477,-412.5 477,-375.5 313,-375.5"/>
            <text text-anchor="start" x="324" y="-390.3" font-family="Helvetica Neue" font-size="14.00" fill="#333333">
                created_at (datetime)
            </text>
            <polygon fill="#ffffff" stroke="none" points="313,-338.5 313,-375.5 477,-375.5 477,-338.5 313,-338.5"/>
            <polygon fill="none" stroke="black" points="313,-338.5 313,-375.5 477,-375.5 477,-338.5 313,-338.5"/>
            <text text-anchor="start" x="324" y="-353.3" font-family="Helvetica Neue" font-size="14.00" fill="#333333">
                updated_at (datetime)
            </text>
        </g>
        <!-- appcomment&#45;&gt;appquiz -->
        <g id="edge1" class="edge">
            <title>appcomment:quiz_id&#45;&gt;appquiz:id</title>
            <path fill="none" stroke="#f77f00" stroke-width="1.8"
                  d="M168.299,-920.47C190.725,-873.36 293.913,-656.596 310.691,-621.35"/>
            <polygon fill="#f77f00" stroke="#f77f00" stroke-width="1.8"
                     points="168.298,-920.471 159.937,-927.566 166.149,-924.985 164,-929.5 164,-929.5 164,-929.5 166.149,-924.985 168.063,-931.434 168.298,-920.471 168.298,-920.471"/>
            <polygon fill="#f77f00" stroke="#f77f00" stroke-width="1.8"
                     points="308.056,-615.254 317.085,-619.552 316.225,-621.358 307.196,-617.06 308.056,-615.254"/>
            <polyline fill="none" stroke="#f77f00" stroke-width="1.8" points="313,-616.5 310.851,-621.015 "/>
            <text text-anchor="middle" x="238.5" y="-777.3" font-family="Helvetica Neue" font-size="14.00"></text>
            <text text-anchor="middle" x="271.995" y="-774.71" font-family="Helvetica Neue" font-size="14.00">
                BelongsTo
            </text>
            <text text-anchor="middle" x="271.995" y="-759.71" font-family="Helvetica Neue" font-size="14.00">quiz
            </text>
        </g>
        <!-- appuser -->
        <g id="node3" class="node">
            <title>appuser</title>
            <polygon fill="none" stroke="black" points="824,-1180.5 626,-1180.5 626,-736.5 824,-736.5 824,-1180.5"/>
            <polygon fill="#d3d3d3" stroke="none" points="626,-1143.5 626,-1180.5 824,-1180.5 824,-1143.5 626,-1143.5"/>
            <polygon fill="none" stroke="black" points="626,-1143.5 626,-1180.5 824,-1180.5 824,-1143.5 626,-1143.5"/>
            <text text-anchor="start" x="711" y="-1158.3" font-family="Helvetica Neue" font-size="14.00" fill="#333333">
                User
            </text>
            <polygon fill="#ffffff" stroke="none" points="626,-1106.5 626,-1143.5 824,-1143.5 824,-1106.5 626,-1106.5"/>
            <polygon fill="none" stroke="black" points="626,-1106.5 626,-1143.5 824,-1143.5 824,-1106.5 626,-1106.5"/>
            <text text-anchor="start" x="637" y="-1121.3" font-family="Helvetica Neue" font-size="14.00" fill="#333333">
                id (bigint)
            </text>
            <polygon fill="#ffffff" stroke="none" points="626,-1069.5 626,-1106.5 824,-1106.5 824,-1069.5 626,-1069.5"/>
            <polygon fill="none" stroke="black" points="626,-1069.5 626,-1106.5 824,-1106.5 824,-1069.5 626,-1069.5"/>
            <text text-anchor="start" x="637" y="-1084.3" font-family="Helvetica Neue" font-size="14.00" fill="#333333">
                name (string)
            </text>
            <polygon fill="#ffffff" stroke="none" points="626,-1032.5 626,-1069.5 824,-1069.5 824,-1032.5 626,-1032.5"/>
            <polygon fill="none" stroke="black" points="626,-1032.5 626,-1069.5 824,-1069.5 824,-1032.5 626,-1032.5"/>
            <text text-anchor="start" x="637" y="-1047.3" font-family="Helvetica Neue" font-size="14.00" fill="#333333">
                email (string)
            </text>
            <polygon fill="#ffffff" stroke="none" points="626,-995.5 626,-1032.5 824,-1032.5 824,-995.5 626,-995.5"/>
            <polygon fill="none" stroke="black" points="626,-995.5 626,-1032.5 824,-1032.5 824,-995.5 626,-995.5"/>
            <text text-anchor="start" x="637" y="-1010.3" font-family="Helvetica Neue" font-size="14.00" fill="#333333">
                role (integer)
            </text>
            <polygon fill="#ffffff" stroke="none" points="626,-958.5 626,-995.5 824,-995.5 824,-958.5 626,-958.5"/>
            <polygon fill="none" stroke="black" points="626,-958.5 626,-995.5 824,-995.5 824,-958.5 626,-958.5"/>
            <text text-anchor="start" x="637" y="-973.3" font-family="Helvetica Neue" font-size="14.00" fill="#333333">
                email_verified_at (datetime)
            </text>
            <polygon fill="#ffffff" stroke="none" points="626,-921.5 626,-958.5 824,-958.5 824,-921.5 626,-921.5"/>
            <polygon fill="none" stroke="black" points="626,-921.5 626,-958.5 824,-958.5 824,-921.5 626,-921.5"/>
            <text text-anchor="start" x="637" y="-936.3" font-family="Helvetica Neue" font-size="14.00" fill="#333333">
                last_login_at (datetime)
            </text>
            <polygon fill="#ffffff" stroke="none" points="626,-884.5 626,-921.5 824,-921.5 824,-884.5 626,-884.5"/>
            <polygon fill="none" stroke="black" points="626,-884.5 626,-921.5 824,-921.5 824,-884.5 626,-884.5"/>
            <text text-anchor="start" x="637" y="-899.3" font-family="Helvetica Neue" font-size="14.00" fill="#333333">
                password (string)
            </text>
            <polygon fill="#ffffff" stroke="none" points="626,-847.5 626,-884.5 824,-884.5 824,-847.5 626,-847.5"/>
            <polygon fill="none" stroke="black" points="626,-847.5 626,-884.5 824,-884.5 824,-847.5 626,-847.5"/>
            <text text-anchor="start" x="637" y="-862.3" font-family="Helvetica Neue" font-size="14.00" fill="#333333">
                remember_token (string)
            </text>
            <polygon fill="#ffffff" stroke="none" points="626,-810.5 626,-847.5 824,-847.5 824,-810.5 626,-810.5"/>
            <polygon fill="none" stroke="black" points="626,-810.5 626,-847.5 824,-847.5 824,-810.5 626,-810.5"/>
            <text text-anchor="start" x="637" y="-825.3" font-family="Helvetica Neue" font-size="14.00" fill="#333333">
                created_at (datetime)
            </text>
            <polygon fill="#ffffff" stroke="none" points="626,-773.5 626,-810.5 824,-810.5 824,-773.5 626,-773.5"/>
            <polygon fill="none" stroke="black" points="626,-773.5 626,-810.5 824,-810.5 824,-773.5 626,-773.5"/>
            <text text-anchor="start" x="637" y="-788.3" font-family="Helvetica Neue" font-size="14.00" fill="#333333">
                updated_at (datetime)
            </text>
            <polygon fill="#ffffff" stroke="none" points="626,-736.5 626,-773.5 824,-773.5 824,-736.5 626,-736.5"/>
            <polygon fill="none" stroke="black" points="626,-736.5 626,-773.5 824,-773.5 824,-736.5 626,-736.5"/>
            <text text-anchor="start" x="637" y="-751.3" font-family="Helvetica Neue" font-size="14.00" fill="#333333">
                deleted_at (datetime)
            </text>
        </g>
        <!-- appcomment&#45;&gt;appuser -->
        <g id="edge2" class="edge">
            <title>appcomment:user_id&#45;&gt;appuser:id</title>
            <path fill="none" stroke="#f77f00" stroke-width="1.8"
                  d="M171.98,-972.596C190.726,-986.916 236,-1021.5 236,-1021.5 236,-1021.5 575.923,-1112.15 621.069,-1124.19"/>
            <polygon fill="#f77f00" stroke="#f77f00" stroke-width="1.8"
                     points="171.947,-972.57 166.732,-962.924 167.973,-969.535 164,-966.5 164,-966.5 164,-966.5 167.973,-969.535 161.268,-970.076 171.947,-972.57 171.947,-972.57"/>
            <polygon fill="#f77f00" stroke="#f77f00" stroke-width="1.8"
                     points="626.322,-1120.41 623.745,-1130.07 621.813,-1129.56 624.39,-1119.9 626.322,-1120.41"/>
            <polyline fill="none" stroke="#f77f00" stroke-width="1.8" points="626,-1125.5 621.169,-1124.21 "/>
            <text text-anchor="middle" x="395" y="-1090.3" font-family="Helvetica Neue" font-size="14.00"></text>
            <text text-anchor="middle" x="357.114" y="-1051.26" font-family="Helvetica Neue" font-size="14.00">
                BelongsTo
            </text>
            <text text-anchor="middle" x="357.114" y="-1036.26" font-family="Helvetica Neue" font-size="14.00">user
            </text>
        </g>
        <!-- applike -->
        <g id="node4" class="node">
            <title>applike</title>
            <polygon fill="none" stroke="black" points="1137,-1345 973,-1345 973,-1086 1137,-1086 1137,-1345"/>
            <polygon fill="#d3d3d3" stroke="none"
                     points="973,-1307.5 973,-1344.5 1137,-1344.5 1137,-1307.5 973,-1307.5"/>
            <polygon fill="none" stroke="black" points="973,-1307.5 973,-1344.5 1137,-1344.5 1137,-1307.5 973,-1307.5"/>
            <text text-anchor="start" x="1042.5" y="-1322.3" font-family="Helvetica Neue" font-size="14.00"
                  fill="#333333">Like
            </text>
            <polygon fill="#ffffff" stroke="none"
                     points="973,-1270.5 973,-1307.5 1137,-1307.5 1137,-1270.5 973,-1270.5"/>
            <polygon fill="none" stroke="black" points="973,-1270.5 973,-1307.5 1137,-1307.5 1137,-1270.5 973,-1270.5"/>
            <text text-anchor="start" x="984" y="-1285.3" font-family="Helvetica Neue" font-size="14.00" fill="#333333">
                id (bigint)
            </text>
            <polygon fill="#ffffff" stroke="none"
                     points="973,-1233.5 973,-1270.5 1137,-1270.5 1137,-1233.5 973,-1233.5"/>
            <polygon fill="none" stroke="black" points="973,-1233.5 973,-1270.5 1137,-1270.5 1137,-1233.5 973,-1233.5"/>
            <text text-anchor="start" x="984" y="-1248.3" font-family="Helvetica Neue" font-size="14.00" fill="#333333">
                user_id (bigint)
            </text>
            <polygon fill="#ffffff" stroke="none"
                     points="973,-1196.5 973,-1233.5 1137,-1233.5 1137,-1196.5 973,-1196.5"/>
            <polygon fill="none" stroke="black" points="973,-1196.5 973,-1233.5 1137,-1233.5 1137,-1196.5 973,-1196.5"/>
            <text text-anchor="start" x="984" y="-1211.3" font-family="Helvetica Neue" font-size="14.00" fill="#333333">
                likeable_id (bigint)
            </text>
            <polygon fill="#ffffff" stroke="none"
                     points="973,-1159.5 973,-1196.5 1137,-1196.5 1137,-1159.5 973,-1159.5"/>
            <polygon fill="none" stroke="black" points="973,-1159.5 973,-1196.5 1137,-1196.5 1137,-1159.5 973,-1159.5"/>
            <text text-anchor="start" x="984" y="-1174.3" font-family="Helvetica Neue" font-size="14.00" fill="#333333">
                likeable_type (string)
            </text>
            <polygon fill="#ffffff" stroke="none"
                     points="973,-1122.5 973,-1159.5 1137,-1159.5 1137,-1122.5 973,-1122.5"/>
            <polygon fill="none" stroke="black" points="973,-1122.5 973,-1159.5 1137,-1159.5 1137,-1122.5 973,-1122.5"/>
            <text text-anchor="start" x="984" y="-1137.3" font-family="Helvetica Neue" font-size="14.00" fill="#333333">
                created_at (datetime)
            </text>
            <polygon fill="#ffffff" stroke="none"
                     points="973,-1085.5 973,-1122.5 1137,-1122.5 1137,-1085.5 973,-1085.5"/>
            <polygon fill="none" stroke="black" points="973,-1085.5 973,-1122.5 1137,-1122.5 1137,-1085.5 973,-1085.5"/>
            <text text-anchor="start" x="984" y="-1100.3" font-family="Helvetica Neue" font-size="14.00" fill="#333333">
                updated_at (datetime)
            </text>
        </g>
        <!-- appcomment&#45;&gt;applike -->
        <g id="edge3" class="edge">
            <title>appcomment:id&#45;&gt;applike:likeable_id</title>
            <path fill="none" stroke="#003049" stroke-width="1.8"
                  d="M164,-1003.5C164,-1003.5 236,-1077.5 236,-1077.5 236,-1077.5 313,-1119.5 313,-1119.5 313,-1119.5 626,-1216.5 626,-1216.5 626,-1216.5 896,-1222.5 896,-1222.5 896,-1222.5 901,-1222.5 901,-1222.5 901,-1222.5 943.205,-1217.81 962.989,-1215.61"/>
            <polygon fill="#003049" stroke="#003049" stroke-width="1.8"
                     points="963.448,-1219.08 973,-1214.5 962.675,-1212.13 963.448,-1219.08"/>
            <text text-anchor="middle" x="551.5" y="-1198.3" font-family="Helvetica Neue" font-size="14.00"></text>
            <text text-anchor="middle" x="501.958" y="-1178.48" font-family="Helvetica Neue" font-size="14.00">
                MorphMany
            </text>
            <text text-anchor="middle" x="501.958" y="-1163.48" font-family="Helvetica Neue" font-size="14.00">likes
            </text>
        </g>
        <!-- appquiz&#45;&gt;appcomment -->
        <g id="edge9" class="edge">
            <title>appquiz:id&#45;&gt;appcomment:quiz_id</title>
            <path fill="none" stroke="#fcbf49" stroke-width="1.8"
                  d="M313,-616.5C313,-616.5 236,-740.5 236,-740.5 236,-740.5 182.099,-881.991 167.57,-920.127"/>
            <polygon fill="#fcbf49" stroke="#fcbf49" stroke-width="1.8"
                     points="167.56,-920.155 159.795,-927.898 165.78,-924.828 164,-929.5 164,-929.5 164,-929.5 165.78,-924.828 168.205,-931.102 167.56,-920.155 167.56,-920.155"/>
            <text text-anchor="middle" x="238.5" y="-744.3" font-family="Helvetica Neue" font-size="14.00"></text>
            <text text-anchor="middle" x="195.266" y="-750.914" font-family="Helvetica Neue" font-size="14.00">HasMany
            </text>
            <text text-anchor="middle" x="195.266" y="-735.914" font-family="Helvetica Neue" font-size="14.00">
                comments
            </text>
        </g>
        <!-- appquiz&#45;&gt;appuser -->
        <g id="edge10" class="edge">
            <title>appquiz:user_id&#45;&gt;appuser:id</title>
            <path fill="none" stroke="#f77f00" stroke-width="1.8"
                  d="M481.288,-570.447C496.789,-537.724 549,-427.5 549,-427.5 549,-427.5 554,-427.5 554,-427.5 554,-427.5 618.873,-1056.41 625.462,-1120.28"/>
            <polygon fill="#f77f00" stroke="#f77f00" stroke-width="1.8"
                     points="481.281,-570.463 472.933,-577.574 479.14,-574.981 477,-579.5 477,-579.5 477,-579.5 479.14,-574.981 481.067,-581.426 481.281,-570.463 481.281,-570.463"/>
            <polygon fill="#f77f00" stroke="#f77f00" stroke-width="1.8"
                     points="630.871,-1123.99 620.924,-1125.02 620.719,-1123.03 630.666,-1122 630.871,-1123.99"/>
            <polyline fill="none" stroke="#f77f00" stroke-width="1.8" points="626,-1125.5 625.487,-1120.53 "/>
            <text text-anchor="middle" x="551.5" y="-431.3" font-family="Helvetica Neue" font-size="14.00"></text>
            <text text-anchor="middle" x="548.86" y="-681.536" font-family="Helvetica Neue" font-size="14.00">
                BelongsTo
            </text>
            <text text-anchor="middle" x="548.86" y="-666.536" font-family="Helvetica Neue" font-size="14.00">user
            </text>
        </g>
        <!-- appquiz&#45;&gt;applike -->
        <g id="edge7" class="edge">
            <title>appquiz:id&#45;&gt;applike:likeable_id</title>
            <path fill="none" stroke="#003049" stroke-width="1.8"
                  d="M477,-616.5C477,-616.5 824,-685.5 824,-685.5 824,-685.5 950.092,-1133.17 970.287,-1204.87"/>
            <polygon fill="#003049" stroke="#003049" stroke-width="1.8"
                     points="966.92,-1205.82 973,-1214.5 973.658,-1203.93 966.92,-1205.82"/>
            <text text-anchor="middle" x="725" y="-689.3" font-family="Helvetica Neue" font-size="14.00"></text>
            <text text-anchor="middle" x="886.684" y="-763.712" font-family="Helvetica Neue" font-size="14.00">
                MorphMany
            </text>
            <text text-anchor="middle" x="886.684" y="-748.712" font-family="Helvetica Neue" font-size="14.00">likes
            </text>
        </g>
        <!-- appquestion -->
        <g id="node5" class="node">
            <title>appquestion</title>
            <polygon fill="none" stroke="black" points="807,-481 643,-481 643,-0 807,-0 807,-481"/>
            <polygon fill="#d3d3d3" stroke="none" points="643,-443.5 643,-480.5 807,-480.5 807,-443.5 643,-443.5"/>
            <polygon fill="none" stroke="black" points="643,-443.5 643,-480.5 807,-480.5 807,-443.5 643,-443.5"/>
            <text text-anchor="start" x="697.5" y="-458.3" font-family="Helvetica Neue" font-size="14.00"
                  fill="#333333">Question
            </text>
            <polygon fill="#ffffff" stroke="none" points="643,-406.5 643,-443.5 807,-443.5 807,-406.5 643,-406.5"/>
            <polygon fill="none" stroke="black" points="643,-406.5 643,-443.5 807,-443.5 807,-406.5 643,-406.5"/>
            <text text-anchor="start" x="654" y="-421.3" font-family="Helvetica Neue" font-size="14.00" fill="#333333">
                id (bigint)
            </text>
            <polygon fill="#ffffff" stroke="none" points="643,-369.5 643,-406.5 807,-406.5 807,-369.5 643,-369.5"/>
            <polygon fill="none" stroke="black" points="643,-369.5 643,-406.5 807,-406.5 807,-369.5 643,-369.5"/>
            <text text-anchor="start" x="654" y="-384.3" font-family="Helvetica Neue" font-size="14.00" fill="#333333">
                quiz_id (bigint)
            </text>
            <polygon fill="#ffffff" stroke="none" points="643,-332.5 643,-369.5 807,-369.5 807,-332.5 643,-332.5"/>
            <polygon fill="none" stroke="black" points="643,-332.5 643,-369.5 807,-369.5 807,-332.5 643,-332.5"/>
            <text text-anchor="start" x="654" y="-347.3" font-family="Helvetica Neue" font-size="14.00" fill="#333333">
                order (integer)
            </text>
            <polygon fill="#ffffff" stroke="none" points="643,-295.5 643,-332.5 807,-332.5 807,-295.5 643,-295.5"/>
            <polygon fill="none" stroke="black" points="643,-295.5 643,-332.5 807,-332.5 807,-295.5 643,-295.5"/>
            <text text-anchor="start" x="654" y="-310.3" font-family="Helvetica Neue" font-size="14.00" fill="#333333">
                title (text)
            </text>
            <polygon fill="#ffffff" stroke="none" points="643,-258.5 643,-295.5 807,-295.5 807,-258.5 643,-258.5"/>
            <polygon fill="none" stroke="black" points="643,-258.5 643,-295.5 807,-295.5 807,-258.5 643,-258.5"/>
            <text text-anchor="start" x="654" y="-273.3" font-family="Helvetica Neue" font-size="14.00" fill="#333333">
                answer_1 (text)
            </text>
            <polygon fill="#ffffff" stroke="none" points="643,-221.5 643,-258.5 807,-258.5 807,-221.5 643,-221.5"/>
            <polygon fill="none" stroke="black" points="643,-221.5 643,-258.5 807,-258.5 807,-221.5 643,-221.5"/>
            <text text-anchor="start" x="654" y="-236.3" font-family="Helvetica Neue" font-size="14.00" fill="#333333">
                answer_2 (text)
            </text>
            <polygon fill="#ffffff" stroke="none" points="643,-184.5 643,-221.5 807,-221.5 807,-184.5 643,-184.5"/>
            <polygon fill="none" stroke="black" points="643,-184.5 643,-221.5 807,-221.5 807,-184.5 643,-184.5"/>
            <text text-anchor="start" x="654" y="-199.3" font-family="Helvetica Neue" font-size="14.00" fill="#333333">
                answer_3 (text)
            </text>
            <polygon fill="#ffffff" stroke="none" points="643,-147.5 643,-184.5 807,-184.5 807,-147.5 643,-147.5"/>
            <polygon fill="none" stroke="black" points="643,-147.5 643,-184.5 807,-184.5 807,-147.5 643,-147.5"/>
            <text text-anchor="start" x="654" y="-162.3" font-family="Helvetica Neue" font-size="14.00" fill="#333333">
                answer_4 (text)
            </text>
            <polygon fill="#ffffff" stroke="none" points="643,-110.5 643,-147.5 807,-147.5 807,-110.5 643,-110.5"/>
            <polygon fill="none" stroke="black" points="643,-110.5 643,-147.5 807,-147.5 807,-110.5 643,-110.5"/>
            <text text-anchor="start" x="654" y="-125.3" font-family="Helvetica Neue" font-size="14.00" fill="#333333">
                correct (integer)
            </text>
            <polygon fill="#ffffff" stroke="none" points="643,-73.5 643,-110.5 807,-110.5 807,-73.5 643,-73.5"/>
            <polygon fill="none" stroke="black" points="643,-73.5 643,-110.5 807,-110.5 807,-73.5 643,-73.5"/>
            <text text-anchor="start" x="654" y="-88.3" font-family="Helvetica Neue" font-size="14.00" fill="#333333">
                deleted_at (datetime)
            </text>
            <polygon fill="#ffffff" stroke="none" points="643,-36.5 643,-73.5 807,-73.5 807,-36.5 643,-36.5"/>
            <polygon fill="none" stroke="black" points="643,-36.5 643,-73.5 807,-73.5 807,-36.5 643,-36.5"/>
            <text text-anchor="start" x="654" y="-51.3" font-family="Helvetica Neue" font-size="14.00" fill="#333333">
                created_at (datetime)
            </text>
            <polygon fill="#ffffff" stroke="none" points="643,0.5 643,-36.5 807,-36.5 807,0.5 643,0.5"/>
            <polygon fill="none" stroke="black" points="643,0.5 643,-36.5 807,-36.5 807,0.5 643,0.5"/>
            <text text-anchor="start" x="654" y="-14.3" font-family="Helvetica Neue" font-size="14.00" fill="#333333">
                updated_at (datetime)
            </text>
        </g>
        <!-- appquiz&#45;&gt;appquestion -->
        <g id="edge8" class="edge">
            <title>appquiz:id&#45;&gt;appquestion:quiz_id</title>
            <path fill="none" stroke="#fcbf49" stroke-width="1.8"
                  d="M477,-616.5C477,-616.5 549,-335.5 549,-335.5 549,-335.5 554,-335.5 554,-335.5 554,-335.5 610.982,-369.819 633.241,-383.224"/>
            <polygon fill="#fcbf49" stroke="#fcbf49" stroke-width="1.8"
                     points="633.434,-383.341 639.678,-392.355 637.717,-385.92 642,-388.5 642,-388.5 642,-388.5 637.717,-385.92 644.322,-384.645 633.434,-383.341 633.434,-383.341"/>
            <text text-anchor="middle" x="551.5" y="-339.3" font-family="Helvetica Neue" font-size="14.00"></text>
            <text text-anchor="middle" x="555.1" y="-417.574" font-family="Helvetica Neue" font-size="14.00">HasMany
            </text>
            <text text-anchor="middle" x="555.1" y="-402.574" font-family="Helvetica Neue" font-size="14.00">questions
            </text>
        </g>
        <!-- appuser&#45;&gt;appcomment -->
        <g id="edge12" class="edge">
            <title>appuser:id&#45;&gt;appcomment:user_id</title>
            <path fill="none" stroke="#fcbf49" stroke-width="1.8"
                  d="M626,-1125.5C626,-1125.5 477,-1010.5 477,-1010.5 477,-1010.5 227.634,-975.445 174.06,-967.914"/>
            <polygon fill="#fcbf49" stroke="#fcbf49" stroke-width="1.8"
                     points="173.903,-967.892 164.626,-962.044 168.951,-967.196 164,-966.5 164,-966.5 164,-966.5 168.951,-967.196 163.374,-970.956 173.903,-967.892 173.903,-967.892"/>
            <text text-anchor="middle" x="395" y="-1014.3" font-family="Helvetica Neue" font-size="14.00"></text>
            <text text-anchor="middle" x="386.222" y="-991.108" font-family="Helvetica Neue" font-size="14.00">HasMany
            </text>
            <text text-anchor="middle" x="386.222" y="-976.108" font-family="Helvetica Neue" font-size="14.00">
                comments
            </text>
        </g>
        <!-- appuser&#45;&gt;appquiz -->
        <g id="edge11" class="edge">
            <title>appuser:id&#45;&gt;appquiz:user_id</title>
            <path fill="none" stroke="#fcbf49" stroke-width="1.8"
                  d="M626,-1125.5C626,-1125.5 554,-519.5 554,-519.5 554,-519.5 549,-519.5 549,-519.5 549,-519.5 503.279,-557.601 484.705,-573.079"/>
            <polygon fill="#fcbf49" stroke="#fcbf49" stroke-width="1.8"
                     points="484.682,-573.098 474.119,-576.043 480.841,-576.299 477,-579.5 477,-579.5 477,-579.5 480.841,-576.299 479.881,-582.957 484.682,-573.098 484.682,-573.098"/>
            <text text-anchor="middle" x="551.5" y="-523.3" font-family="Helvetica Neue" font-size="14.00"></text>
            <text text-anchor="middle" x="555.768" y="-767.263" font-family="Helvetica Neue" font-size="14.00">HasMany
            </text>
            <text text-anchor="middle" x="555.768" y="-752.263" font-family="Helvetica Neue" font-size="14.00">quizzes
            </text>
        </g>
        <!-- appuser&#45;&gt;applike -->
        <g id="edge13" class="edge">
            <title>appuser:id&#45;&gt;applike:user_id</title>
            <path fill="none" stroke="#fcbf49" stroke-width="1.8"
                  d="M824,-1125.5C824,-1125.5 896,-1222.5 896,-1222.5 896,-1222.5 942.997,-1240.81 963.558,-1248.82"/>
            <polygon fill="#fcbf49" stroke="#fcbf49" stroke-width="1.8"
                     points="963.682,-1248.87 971.366,-1256.69 968.341,-1250.68 973,-1252.5 973,-1252.5 973,-1252.5 968.341,-1250.68 974.634,-1248.31 963.682,-1248.87 963.682,-1248.87"/>
            <text text-anchor="middle" x="898.5" y="-1227.3" font-family="Helvetica Neue" font-size="14.00"></text>
            <text text-anchor="middle" x="852.607" y="-1191.91" font-family="Helvetica Neue" font-size="14.00">HasMany
            </text>
            <text text-anchor="middle" x="852.607" y="-1176.91" font-family="Helvetica Neue" font-size="14.00">likes
            </text>
        </g>
        <!-- applike&#45;&gt;appuser -->
        <g id="edge4" class="edge">
            <title>applike:user_id&#45;&gt;appuser:id</title>
            <path fill="none" stroke="#f77f00" stroke-width="1.8"
                  d="M965.327,-1245.96C938.301,-1222.92 848.071,-1146.02 827.985,-1128.9"/>
            <polygon fill="#f77f00" stroke="#f77f00" stroke-width="1.8"
                     points="965.389,-1246.01 970.081,-1255.92 969.195,-1249.26 973,-1252.5 973,-1252.5 973,-1252.5 969.195,-1249.26 975.919,-1249.08 965.389,-1246.01 965.389,-1246.01"/>
            <polygon fill="#f77f00" stroke="#f77f00" stroke-width="1.8"
                     points="821.518,-1129.95 828.005,-1122.34 829.527,-1123.64 823.04,-1131.25 821.518,-1129.95"/>
            <polyline fill="none" stroke="#f77f00" stroke-width="1.8" points="824,-1125.5 827.805,-1128.74 "/>
            <text text-anchor="middle" x="898.5" y="-1193.3" font-family="Helvetica Neue" font-size="14.00"></text>
            <text text-anchor="middle" x="929.156" y="-1176.23" font-family="Helvetica Neue" font-size="14.00">
                BelongsTo
            </text>
            <text text-anchor="middle" x="929.156" y="-1161.23" font-family="Helvetica Neue" font-size="14.00">user
            </text>
        </g>
        <!-- applike&#45;&gt;applike -->
        <g id="edge5" class="edge">
            <title>applike:likeable_id&#45;&gt;applike</title>
            <path fill="none" stroke="#003049" stroke-width="1.8"
                  d="M1015.23,-1196.41C961.084,-1180.15 895,-1186.27 895,-1215 895,-1234.63 925.859,-1243.7 962.681,-1242.3"/>
            <polygon fill="#003049" stroke="#003049" stroke-width="1.8"
                     points="962.916,-1245.79 972.677,-1241.67 962.477,-1238.8 962.916,-1245.79"/>
            <text text-anchor="middle" x="892.5" y="-1211.8" font-family="Helvetica Neue" font-size="14.00"></text>
            <text text-anchor="middle" x="947.555" y="-1230.08" font-family="Helvetica Neue" font-size="14.00">MorphTo
            </text>
            <text text-anchor="middle" x="947.555" y="-1215.08" font-family="Helvetica Neue" font-size="14.00">
                likeable
            </text>
        </g>
        <!-- appquestion&#45;&gt;appquiz -->
        <g id="edge6" class="edge">
            <title>appquestion:quiz_id&#45;&gt;appquiz:id</title>
            <path fill="none" stroke="#f77f00" stroke-width="1.8"
                  d="M636.759,-397.553C617.814,-430.276 554,-540.5 554,-540.5 554,-540.5 496.095,-597.653 480.714,-612.834"/>
            <polygon fill="#f77f00" stroke="#f77f00" stroke-width="1.8"
                     points="636.99,-397.154 645.894,-390.755 639.495,-392.827 642,-388.5 642,-388.5 642,-388.5 639.495,-392.827 638.106,-386.245 636.99,-397.154 636.99,-397.154"/>
            <polygon fill="#f77f00" stroke="#f77f00" stroke-width="1.8"
                     points="481.224,-619.356 474.199,-612.239 475.623,-610.834 482.648,-617.951 481.224,-619.356"/>
            <polyline fill="none" stroke="#f77f00" stroke-width="1.8" points="477,-616.5 480.559,-612.988 "/>
            <text text-anchor="middle" x="551.5" y="-549.3" font-family="Helvetica Neue" font-size="14.00"></text>
            <text text-anchor="middle" x="537.083" y="-502.384" font-family="Helvetica Neue" font-size="14.00">
                BelongsTo
            </text>
            <text text-anchor="middle" x="537.083" y="-487.384" font-family="Helvetica Neue" font-size="14.00">quiz
            </text>
        </g>
    </g>
</svg>
